<svg xmlns="http://www.w3.org/2000/svg" version="1.1" xmlns:xlink="http://www.w3.org/1999/xlink" xmlns:svgjs="http://svgjs.dev/svgjs" width="1500" height="1500" viewBox="0 0 1500 1500"><rect width="1500" height="1500" fill="#000000"></rect><g transform="matrix(0.6666666666666666,0,0,0.6666666666666666,249.39393939393938,450.3884367910104)"><svg viewBox="0 0 396 237" data-background-color="#f9f9f9" preserveAspectRatio="xMidYMid meet" height="897" width="1500" xmlns="http://www.w3.org/2000/svg" xmlns:xlink="http://www.w3.org/1999/xlink"><g id="tight-bounds" transform="matrix(1,0,0,1,0.2400000000000091,0.24237538550256943)"><svg viewBox="0 0 395.52 236.51524922899486" height="236.51524922899486" width="395.52"><g><svg viewBox="0 0 395.52 236.51524922899486" height="236.51524922899486" width="395.52"><g transform="matrix(1,0,0,1,0,142.26083589647328)"><svg viewBox="0 0 395.52 94.25441333252158" height="94.25441333252158" width="395.52"><g id="textblocktransform"><svg viewBox="0 0 395.52 94.25441333252158" height="94.25441333252158" width="395.52" id="textblock"><g><svg viewBox="0 0 395.52 50.8363267376966" height="50.8363267376966" width="395.52"><g transform="matrix(1,0,0,1,0,0)"><svg width="395.52" viewBox="1.4 -37.5 295.62 38" height="50.8363267376966" data-palette-color="#030303"><path d="M13.55 0L1.4 0 1.4-1.7 5.6-1.7 5.6-35.3 1.4-35.3 1.4-37 13.25-37Q17.8-37 20.2-34.7 22.6-32.4 22.6-28L22.6-28Q22.6-25.55 21.8-23.9 21-22.25 19.85-21.38 18.7-20.5 17.6-20.25L17.6-20.25 17.6-19.9Q19-19.65 20.48-18.55 21.95-17.45 23-15.45 24.05-13.45 24.05-10.45L24.05-10.45Q24.05-5.4 21.35-2.7 18.65 0 13.55 0L13.55 0ZM9.1-35.4L9.1-20.7 13.65-20.7Q18.65-20.7 18.65-25.7L18.65-25.7 18.65-30.4Q18.65-35.4 13.65-35.4L13.65-35.4 9.1-35.4ZM9.1-19.15L9.1-1.6 13.65-1.6Q16.75-1.6 18.35-3.23 19.95-4.85 19.95-7.9L19.95-7.9 19.95-12.85Q19.95-15.95 18.35-17.55 16.75-19.15 13.65-19.15L13.65-19.15 9.1-19.15ZM46.35 0L28.45 0 28.45-1.7 35.65-1.7 35.65-15.6 27.65-35.3 23.7-35.3 23.7-37 36-37 36-35.3 31.05-35.3 38.2-17.8 44.75-35.3 41.45-35.3 41.45-37 49.85-37 49.85-35.3 46.5-35.3 39.15-15.75 39.15-1.7 46.35-1.7 46.35 0ZM71.09 0L53.7 0 53.7-1.6 60.65-1.6 60.65-35.25 57.7-35.25Q54-35.25 53.55-31.65L53.55-31.65 52.85-26.3 51.45-26.3 51.45-37.5 52.35-37.5 53.85-37 70.95-37 72.45-37.5 73.34-37.5 73.34-26.3 71.95-26.3 71.25-31.65Q70.8-35.25 67.09-35.25L67.09-35.25 64.15-35.25 64.15-1.6 71.09-1.6 71.09 0ZM97.59 0L76.54 0 76.54-1.7 80.74-1.7 80.74-35.3 76.54-35.3 76.54-37 97.09-37 97.09-26.3 95.69-26.3 94.99-31.65Q94.54-35.25 90.84-35.25L90.84-35.25 84.24-35.25 84.24-21.05 90.69-21.05 90.69-27.4 92.29-27.4 92.29-13 90.69-13 90.69-19.35 84.24-19.35 84.24-1.75 91.34-1.75Q94.99-1.75 95.44-5.4L95.44-5.4 96.19-11.7 97.59-11.7 97.59 0ZM113.54 0L101.39 0 101.39-1.7 105.59-1.7 105.59-35.3 101.39-35.3 101.39-37 113.24-37Q117.79-37 120.19-34.7 122.59-32.4 122.59-28L122.59-28Q122.59-25.55 121.79-23.9 120.99-22.25 119.84-21.38 118.69-20.5 117.59-20.25L117.59-20.25 117.59-19.9Q118.99-19.65 120.47-18.55 121.94-17.45 122.99-15.45 124.04-13.45 124.04-10.45L124.04-10.45Q124.04-5.4 121.34-2.7 118.64 0 113.54 0L113.54 0ZM109.09-35.4L109.09-20.7 113.64-20.7Q118.64-20.7 118.64-25.7L118.64-25.7 118.64-30.4Q118.64-35.4 113.64-35.4L113.64-35.4 109.09-35.4ZM109.09-19.15L109.09-1.6 113.64-1.6Q116.74-1.6 118.34-3.23 119.94-4.85 119.94-7.9L119.94-7.9 119.94-12.85Q119.94-15.95 118.34-17.55 116.74-19.15 113.64-19.15L113.64-19.15 109.09-19.15ZM137.59 0.5L137.59 0.5Q133.64 0.5 131.54-1.75 129.44-4 129.44-8.25L129.44-8.25 129.44-35.3 126.24-35.3 126.24-37 136.64-37 136.64-35.3 132.94-35.3 132.94-8.2Q132.94-5 134.36-3.28 135.79-1.55 138.49-1.55L138.49-1.55Q141.19-1.55 142.61-3.28 144.04-5 144.04-8.2L144.04-8.2 144.04-35.3 141.09-35.3 141.09-37 148.69-37 148.69-35.3 145.74-35.3 145.74-8.25Q145.74-4 143.66-1.75 141.59 0.5 137.59 0.5ZM172.49 0L152.59 0 152.59-1.7 160.79-1.7 160.79-35.3 152.59-35.3 152.59-37 172.49-37 172.49-35.3 164.29-35.3 164.29-1.7 172.49-1.7 172.49 0ZM197.58 0L176.53 0 176.53-1.7 180.73-1.7 180.73-35.3 176.53-35.3 176.53-37 188.43-37 188.43-35.3 184.23-35.3 184.23-1.75 191.33-1.75Q194.98-1.75 195.43-5.4L195.43-5.4 196.18-11.7 197.58-11.7 197.58 0ZM211.33 0L201.88 0 201.88-1.7 206.08-1.7 206.08-35.3 201.88-35.3 201.88-37 211.33-37Q214.48-37 216.78-35.43 219.08-33.85 220.58-31.2 222.08-28.55 222.83-25.25 223.58-21.95 223.58-18.5L223.58-18.5Q223.58-15.05 222.83-11.75 222.08-8.45 220.58-5.8 219.08-3.15 216.78-1.58 214.48 0 211.33 0L211.33 0ZM211.33-35.4L211.33-35.4 209.58-35.4 209.58-1.6 211.33-1.6Q213.53-1.6 215.36-2.65 217.18-3.7 218.28-5.73 219.38-7.75 219.38-10.65L219.38-10.65 219.38-26.35Q219.38-29.3 218.28-31.3 217.18-33.3 215.36-34.35 213.53-35.4 211.33-35.4ZM247.58 0L226.53 0 226.53-1.7 230.73-1.7 230.73-35.3 226.53-35.3 226.53-37 247.08-37 247.08-26.3 245.68-26.3 244.98-31.65Q244.53-35.25 240.83-35.25L240.83-35.25 234.23-35.25 234.23-21.05 240.68-21.05 240.68-27.4 242.28-27.4 242.28-13 240.68-13 240.68-19.35 234.23-19.35 234.23-1.75 241.33-1.75Q244.98-1.75 245.43-5.4L245.43-5.4 246.18-11.7 247.58-11.7 247.58 0ZM270.43 0.5L270.43 0.5Q268.33 0.5 267.2-0.93 266.08-2.35 266.08-4.65L266.08-4.65 266.08-13.85Q266.08-16.6 265.05-17.68 264.03-18.75 260.98-18.75L260.98-18.75 258.58-18.75 258.58-1.7 262.73-1.7 262.73 0 250.88 0 250.88-1.7 255.08-1.7 255.08-35.3 250.88-35.3 250.88-37 262.38-37Q266.13-37 268.35-35.6 270.58-34.2 271.55-32.1 272.53-30 272.53-27.95L272.53-27.95Q272.53-24.6 270.48-22.45 268.43-20.3 265.03-19.6L265.03-19.6 264.78-19.55 264.78-19.25 265.03-19.2Q267.23-18.75 268.38-17.6 269.53-16.45 269.53-13.85L269.53-13.85 269.53-5.05Q269.53-4.55 269.6-3.78 269.68-3 270.08-2.43 270.48-1.85 271.38-1.85L271.38-1.85Q272.53-1.85 272.88-2.78 273.23-3.7 273.23-4.75L273.23-4.75 273.23-13.4 274.73-13.4 274.73-4.6Q274.73-3.5 274.35-2.3 273.98-1.1 273.05-0.3 272.13 0.5 270.43 0.5ZM258.58-35.4L258.58-20.35 261.53-20.35Q264.88-20.35 266.65-21.63 268.43-22.9 268.43-26.25L268.43-26.25 268.43-29Q268.43-32.35 266.65-33.88 264.88-35.4 261.53-35.4L261.53-35.4 258.58-35.4ZM288.42 0.5L288.42 0.5Q286.27 0.5 284.8-0.33 283.32-1.15 282.45-2.33 281.57-3.5 281.12-4.7 280.67-5.9 280.57-6.65L280.57-6.65 280.17-6.65 280.17 0 278.57 0 278.57-14.75 281.17-14.75 281.17-12.8Q281.17-11.95 281.3-10.5 281.42-9.05 281.8-7.45 282.17-5.85 282.92-4.42 283.67-3 284.97-2.1 286.27-1.2 288.27-1.2L288.27-1.2Q290.67-1.2 292.17-2.68 293.67-4.15 293.67-6.8L293.67-6.8Q293.67-9.1 292.65-11.05 291.62-13 289.97-14.78 288.32-16.55 286.5-18.28 284.67-20 283.02-21.78 281.37-23.55 280.35-25.58 279.32-27.6 279.32-29.95L279.32-29.95Q279.32-32.3 280.37-33.98 281.42-35.65 283.15-36.58 284.87-37.5 286.97-37.5L286.97-37.5Q289.32-37.5 290.77-36.5 292.22-35.5 293.02-34.2 293.82-32.9 294.12-31.95L294.12-31.95 294.52-31.95 294.52-37 296.12-37 296.12-24.6 293.52-24.6 293.52-26.2Q293.52-28.9 292.75-31.1 291.97-33.3 290.55-34.58 289.12-35.85 287.07-35.85L287.07-35.85Q285.02-35.85 283.85-34.5 282.67-33.15 282.67-31.1L282.67-31.1Q282.67-29.1 283.7-27.28 284.72-25.45 286.37-23.73 288.02-22 289.85-20.25 291.67-18.5 293.32-16.63 294.97-14.75 296-12.63 297.02-10.5 297.02-8L297.02-8Q297.02-5.4 295.85-3.5 294.67-1.6 292.72-0.55 290.77 0.5 288.42 0.5Z" opacity="1" transform="matrix(1,0,0,1,0,0)" fill="#ffffff" class="wordmark-text-0" data-fill-palette-color="primary" id="text-0"></path></svg></g></svg></g><g transform="matrix(1,0,0,1,0,62.837563408625066)"><svg viewBox="0 0 395.52 31.416849923896503" height="31.416849923896503" width="395.52"><g transform="matrix(1,0,0,1,0,0)"><svg width="395.52" viewBox="3 -39.65 635.77 50.5" height="31.416849923896503" data-palette-color="#030303"><path d="M17.05-18.3Q20.4-17.55 22.33-15.63 24.25-13.7 24.25-9.9L24.25-9.9Q24.25-4.9 20.88-2.45 17.5 0 11.7 0L11.7 0 3 0 3-34.55 10.55-34.55Q16.5-34.55 19.75-32.3 23-30.05 23-25.75L23-25.75Q23-22.85 21.38-20.95 19.75-19.05 17.05-18.3L17.05-18.3ZM11.2-29.85L9.35-29.85 9.35-20.3 11.5-20.3Q16.55-20.3 16.55-25.2L16.55-25.2Q16.55-27.65 15.28-28.75 14-29.85 11.2-29.85L11.2-29.85ZM11.75-4.8Q14.65-4.8 16.15-6.03 17.65-7.25 17.65-10.15L17.65-10.15Q17.65-13.05 16.25-14.43 14.85-15.8 11.9-15.8L11.9-15.8 9.35-15.8 9.35-4.8 11.75-4.8ZM50.76-26.45L50.76 0 45.41 0 45.11-3.35Q43.86-1.3 42.31-0.28 40.76 0.75 38.71 0.75L38.71 0.75Q35.81 0.75 34.13-1.3 32.46-3.35 32.46-6.65L32.46-6.65 32.46-26.45 38.61-26.45 38.61-7Q38.61-3.9 40.71-3.9L40.71-3.9Q41.91-3.9 42.86-4.83 43.81-5.75 44.61-7.45L44.61-7.45 44.61-26.45 50.76-26.45ZM60.82-26.45L66.97-26.45 66.97 0 60.82 0 60.82-26.45ZM63.87-39.65Q65.52-39.65 66.54-38.6 67.57-37.55 67.57-35.9L67.57-35.9Q67.57-34.3 66.54-33.25 65.52-32.2 63.87-32.2L63.87-32.2Q62.22-32.2 61.19-33.25 60.17-34.3 60.17-35.9L60.17-35.9Q60.17-37.55 61.19-38.6 62.22-39.65 63.87-39.65L63.87-39.65ZM82.63 0.75Q79.93 0.75 78.35-0.93 76.78-2.6 76.78-5.4L76.78-5.4 76.78-37.05 82.93-37.7 82.93-5.65Q82.93-5 83.23-4.6 83.53-4.2 84.13-4.2L84.13-4.2Q84.48-4.2 84.8-4.3 85.13-4.4 85.23-4.4L85.23-4.4 86.43-0.2Q84.73 0.75 82.63 0.75L82.63 0.75ZM106.79-37.7L112.94-37.05 112.94 0 107.49 0 107.19-3.05Q104.84 0.75 101.14 0.75L101.14 0.75Q97.04 0.75 94.86-2.93 92.69-6.6 92.69-13.2L92.69-13.2Q92.69-17.4 93.81-20.58 94.94-23.75 96.94-25.45 98.94-27.15 101.54-27.15L101.54-27.15Q104.74-27.15 106.79-24.5L106.79-24.5 106.79-37.7ZM102.89-3.9Q104.04-3.9 104.96-4.7 105.89-5.5 106.79-7L106.79-7 106.79-19.85Q105.19-22.55 103.14-22.55L103.14-22.55Q99.09-22.55 99.09-13.25L99.09-13.25Q99.09-8.2 100.09-6.05 101.09-3.9 102.89-3.9L102.89-3.9ZM123-26.45L129.15-26.45 129.15 0 123 0 123-26.45ZM126.05-39.65Q127.7-39.65 128.72-38.6 129.75-37.55 129.75-35.9L129.75-35.9Q129.75-34.3 128.72-33.25 127.7-32.2 126.05-32.2L126.05-32.2Q124.4-32.2 123.37-33.25 122.35-34.3 122.35-35.9L122.35-35.9Q122.35-37.55 123.37-38.6 124.4-39.65 126.05-39.65L126.05-39.65ZM151.56-27.15Q154.41-27.15 156.06-25.1 157.71-23.05 157.71-19.6L157.71-19.6 157.71 0 151.56 0 151.56-18.9Q151.56-20.8 151.03-21.63 150.51-22.45 149.51-22.45L149.51-22.45Q147.41-22.45 145.36-18.5L145.36-18.5 145.36 0 139.21 0 139.21-26.45 144.56-26.45 145.01-23Q146.36-25.1 147.88-26.13 149.41-27.15 151.56-27.15L151.56-27.15ZM185.57-29.85L187.12-25.1Q186.07-24.6 184.59-24.4 183.12-24.2 180.92-24.2L180.92-24.2Q183.02-23.2 184.04-21.53 185.07-19.85 185.07-17.4L185.07-17.4Q185.07-13.4 182.62-10.95 180.17-8.5 175.97-8.5L175.97-8.5Q174.72-8.5 173.42-8.9L173.42-8.9Q172.52-8.15 172.52-6.85L172.52-6.85Q172.52-5.85 173.07-5.35 173.62-4.85 175.12-4.85L175.12-4.85 177.92-4.85Q181.92-4.85 184.27-2.78 186.62-0.7 186.62 2.5L186.62 2.5Q186.62 6.3 183.69 8.58 180.77 10.85 175.37 10.85L175.37 10.85Q169.67 10.85 167.39 8.75 165.12 6.65 165.12 2.6L165.12 2.6 170.57 2.6Q170.57 4.75 171.57 5.65 172.57 6.55 175.42 6.55L175.42 6.55Q178.17 6.55 179.32 5.6 180.47 4.65 180.47 2.9L180.47 2.9Q180.47 1.2 179.52 0.4 178.57-0.4 176.57-0.4L176.57-0.4 174.67-0.4Q170.87-0.4 169.12-1.75 167.37-3.1 167.37-5.45L167.37-5.45Q167.37-6.8 168.09-8.03 168.82-9.25 170.07-10.2L170.07-10.2Q168.02-11.5 167.07-13.3 166.12-15.1 166.12-17.7L166.12-17.7Q166.12-22.05 168.72-24.58 171.32-27.1 175.72-27.1L175.72-27.1Q178.97-27.1 181.09-27.8 183.22-28.5 185.57-29.85L185.57-29.85ZM175.72-23Q173.97-23 173.07-21.75 172.17-20.5 172.17-17.8L172.17-17.8Q172.17-15.25 173.07-13.88 173.97-12.5 175.67-12.5L175.67-12.5Q177.42-12.5 178.27-13.73 179.12-14.95 179.12-17.85L179.12-17.85Q179.12-20.55 178.29-21.78 177.47-23 175.72-23L175.72-23ZM223.44-34.55L229.94-34.55 220.84-13.15 220.84 0 214.44 0 214.44-13.1 205.34-34.55 212.09-34.55 217.74-18.3 223.44-34.55ZM246.3-27.15Q251.3-27.15 254.07-23.65 256.85-20.15 256.85-13.25L256.85-13.25Q256.85-6.65 254.05-2.95 251.25 0.75 246.3 0.75L246.3 0.75Q241.35 0.75 238.55-2.88 235.75-6.5 235.75-13.25L235.75-13.25Q235.75-19.95 238.55-23.55 241.35-27.15 246.3-27.15L246.3-27.15ZM246.3-22.5Q244.15-22.5 243.15-20.38 242.15-18.25 242.15-13.25L242.15-13.25Q242.15-8.2 243.15-6.08 244.15-3.95 246.3-3.95L246.3-3.95Q248.45-3.95 249.45-6.08 250.45-8.2 250.45-13.25L250.45-13.25Q250.45-18.3 249.45-20.4 248.45-22.5 246.3-22.5L246.3-22.5ZM283.91-26.45L283.91 0 278.56 0 278.26-3.35Q277.01-1.3 275.46-0.28 273.91 0.75 271.86 0.75L271.86 0.75Q268.96 0.75 267.28-1.3 265.61-3.35 265.61-6.65L265.61-6.65 265.61-26.45 271.76-26.45 271.76-7Q271.76-3.9 273.86-3.9L273.86-3.9Q275.06-3.9 276.01-4.83 276.96-5.75 277.76-7.45L277.76-7.45 277.76-26.45 283.91-26.45ZM305.62-27.1Q306.77-27.1 307.67-26.75L307.67-26.75 306.67-20.85Q305.67-21.1 304.82-21.1L304.82-21.1Q302.92-21.1 301.82-19.45 300.72-17.8 300.12-14.55L300.12-14.55 300.12 0 293.97 0 293.97-26.45 299.32-26.45 299.77-21.85Q301.62-27.1 305.62-27.1L305.62-27.1ZM336.94-34.55Q341.29-34.55 344.46-33.23 347.64-31.9 349.61-28.13 351.59-24.35 351.59-17.45L351.59-17.45Q351.59-7.7 347.71-3.85 343.84 0 337.59 0L337.59 0 329.24 0 329.24-34.55 336.94-34.55ZM337.89-29.8L335.59-29.8 335.59-4.75 337.94-4.75Q340.19-4.75 341.71-5.8 343.24-6.85 344.11-9.65 344.99-12.45 344.99-17.45L344.99-17.45Q344.99-22.55 344.06-25.25 343.14-27.95 341.61-28.88 340.09-29.8 337.89-29.8L337.89-29.8ZM360.55-26.45L366.7-26.45 366.7 0 360.55 0 360.55-26.45ZM363.6-39.65Q365.25-39.65 366.27-38.6 367.3-37.55 367.3-35.9L367.3-35.9Q367.3-34.3 366.27-33.25 365.25-32.2 363.6-32.2L363.6-32.2Q361.95-32.2 360.92-33.25 359.9-34.3 359.9-35.9L359.9-35.9Q359.9-37.55 360.92-38.6 361.95-39.65 363.6-39.65L363.6-39.65ZM394.71-29.85L396.26-25.1Q395.21-24.6 393.73-24.4 392.26-24.2 390.06-24.2L390.06-24.2Q392.16-23.2 393.18-21.53 394.21-19.85 394.21-17.4L394.21-17.4Q394.21-13.4 391.76-10.95 389.31-8.5 385.11-8.5L385.11-8.5Q383.86-8.5 382.56-8.9L382.56-8.9Q381.66-8.15 381.66-6.85L381.66-6.85Q381.66-5.85 382.21-5.35 382.76-4.85 384.26-4.85L384.26-4.85 387.06-4.85Q391.06-4.85 393.41-2.78 395.76-0.7 395.76 2.5L395.76 2.5Q395.76 6.3 392.83 8.58 389.91 10.85 384.51 10.85L384.51 10.85Q378.81 10.85 376.53 8.75 374.26 6.65 374.26 2.6L374.26 2.6 379.71 2.6Q379.71 4.75 380.71 5.65 381.71 6.55 384.56 6.55L384.56 6.55Q387.31 6.55 388.46 5.6 389.61 4.65 389.61 2.9L389.61 2.9Q389.61 1.2 388.66 0.4 387.71-0.4 385.71-0.4L385.71-0.4 383.81-0.4Q380.01-0.4 378.26-1.75 376.51-3.1 376.51-5.45L376.51-5.45Q376.51-6.8 377.23-8.03 377.96-9.25 379.21-10.2L379.21-10.2Q377.16-11.5 376.21-13.3 375.26-15.1 375.26-17.7L375.26-17.7Q375.26-22.05 377.86-24.58 380.46-27.1 384.86-27.1L384.86-27.1Q388.11-27.1 390.23-27.8 392.36-28.5 394.71-29.85L394.71-29.85ZM384.86-23Q383.11-23 382.21-21.75 381.31-20.5 381.31-17.8L381.31-17.8Q381.31-15.25 382.21-13.88 383.11-12.5 384.81-12.5L384.81-12.5Q386.56-12.5 387.41-13.73 388.26-14.95 388.26-17.85L388.26-17.85Q388.26-20.55 387.43-21.78 386.61-23 384.86-23L384.86-23ZM403.37-26.45L409.52-26.45 409.52 0 403.37 0 403.37-26.45ZM406.42-39.65Q408.07-39.65 409.09-38.6 410.12-37.55 410.12-35.9L410.12-35.9Q410.12-34.3 409.09-33.25 408.07-32.2 406.42-32.2L406.42-32.2Q404.77-32.2 403.74-33.25 402.72-34.3 402.72-35.9L402.72-35.9Q402.72-37.55 403.74-38.6 404.77-39.65 406.42-39.65L406.42-39.65ZM430.73-5L432.88-1.2Q430.43 0.75 427.13 0.75L427.13 0.75Q423.68 0.75 421.88-1.23 420.08-3.2 420.08-6.6L420.08-6.6 420.08-22 416.98-22 416.98-26.45 420.08-26.45 420.08-32.3 426.23-33.05 426.23-26.45 431.23-26.45 430.63-22 426.23-22 426.23-6.6Q426.23-4.2 428.28-4.2L428.28-4.2Q428.93-4.2 429.43-4.38 429.93-4.55 430.73-5L430.73-5ZM456.69-6.4Q456.69-5.1 457.04-4.48 457.39-3.85 458.19-3.45L458.19-3.45 456.94 0.65Q454.89 0.4 453.66-0.45 452.44-1.3 451.84-3.05L451.84-3.05Q449.54 0.75 445.39 0.75L445.39 0.75Q442.09 0.75 440.14-1.48 438.19-3.7 438.19-7.4L438.19-7.4Q438.19-11.7 440.86-13.95 443.54-16.2 448.64-16.2L448.64-16.2 450.69-16.2 450.69-18.05Q450.69-20.55 449.81-21.58 448.94-22.6 446.99-22.6L446.99-22.6Q444.64-22.6 441.14-21.3L441.14-21.3 439.74-25.3Q441.74-26.2 443.89-26.68 446.04-27.15 447.99-27.15L447.99-27.15Q456.69-27.15 456.69-18.35L456.69-18.35 456.69-6.4ZM447.04-3.7Q449.44-3.7 450.69-7L450.69-7 450.69-12.55 449.24-12.55Q446.69-12.55 445.51-11.4 444.34-10.25 444.34-7.85L444.34-7.85Q444.34-5.8 445.04-4.75 445.74-3.7 447.04-3.7L447.04-3.7ZM472.45 0.75Q469.75 0.75 468.17-0.93 466.6-2.6 466.6-5.4L466.6-5.4 466.6-37.05 472.75-37.7 472.75-5.65Q472.75-5 473.05-4.6 473.35-4.2 473.95-4.2L473.95-4.2Q474.3-4.2 474.62-4.3 474.95-4.4 475.05-4.4L475.05-4.4 476.25-0.2Q474.55 0.75 472.45 0.75L472.45 0.75ZM504.37 0L498.02 0 498.02-34.55 514.72-34.55 514.02-29.8 504.37-29.8 504.37-19.25 512.77-19.25 512.77-14.5 504.37-14.5 504.37 0ZM540.53-26.45L540.53 0 535.18 0 534.88-3.35Q533.63-1.3 532.08-0.28 530.53 0.75 528.48 0.75L528.48 0.75Q525.58 0.75 523.9-1.3 522.23-3.35 522.23-6.65L522.23-6.65 522.23-26.45 528.38-26.45 528.38-7Q528.38-3.9 530.48-3.9L530.48-3.9Q531.68-3.9 532.63-4.83 533.58-5.75 534.38-7.45L534.38-7.45 534.38-26.45 540.53-26.45ZM561.74-5L563.89-1.2Q561.44 0.75 558.14 0.75L558.14 0.75Q554.69 0.75 552.89-1.23 551.09-3.2 551.09-6.6L551.09-6.6 551.09-22 547.99-22 547.99-26.45 551.09-26.45 551.09-32.3 557.24-33.05 557.24-26.45 562.24-26.45 561.64-22 557.24-22 557.24-6.6Q557.24-4.2 559.29-4.2L559.29-4.2Q559.94-4.2 560.44-4.38 560.94-4.55 561.74-5L561.74-5ZM588.95-26.45L588.95 0 583.6 0 583.3-3.35Q582.05-1.3 580.5-0.28 578.95 0.75 576.9 0.75L576.9 0.75Q574 0.75 572.32-1.3 570.65-3.35 570.65-6.65L570.65-6.65 570.65-26.45 576.8-26.45 576.8-7Q576.8-3.9 578.9-3.9L578.9-3.9Q580.1-3.9 581.05-4.83 582-5.75 582.8-7.45L582.8-7.45 582.8-26.45 588.95-26.45ZM610.66-27.1Q611.81-27.1 612.71-26.75L612.71-26.75 611.71-20.85Q610.71-21.1 609.86-21.1L609.86-21.1Q607.96-21.1 606.86-19.45 605.76-17.8 605.16-14.55L605.16-14.55 605.16 0 599.01 0 599.01-26.45 604.36-26.45 604.81-21.85Q606.66-27.1 610.66-27.1L610.66-27.1ZM638.77-13.85Q638.77-13.4 638.62-11.3L638.62-11.3 624.97-11.3Q625.17-7.2 626.39-5.58 627.62-3.95 629.87-3.95L629.87-3.95Q631.42-3.95 632.67-4.48 633.92-5 635.37-6.15L635.37-6.15 637.92-2.65Q634.42 0.75 629.52 0.75L629.52 0.75Q624.32 0.75 621.54-2.85 618.77-6.45 618.77-13L618.77-13Q618.77-19.55 621.42-23.35 624.07-27.15 628.92-27.15L628.92-27.15Q633.57-27.15 636.17-23.78 638.77-20.4 638.77-13.85L638.77-13.85ZM632.77-15.3L632.77-15.65Q632.77-19.4 631.87-21.13 630.97-22.85 628.97-22.85L628.97-22.85Q627.12-22.85 626.14-21.18 625.17-19.5 624.97-15.3L624.97-15.3 632.77-15.3Z" opacity="1" transform="matrix(1,0,0,1,0,0)" fill="#ffffff" class="slogan-text-1" data-fill-palette-color="secondary" id="text-1"></path></svg></g></svg></g></svg></g></svg></g><g transform="matrix(1,0,0,1,132.63020038722757,0)"><svg viewBox="0 0 130.25959922554483 130.25959922554483" height="130.25959922554483" width="130.25959922554483"><g><svg xmlns="http://www.w3.org/2000/svg" xmlns:xlink="http://www.w3.org/1999/xlink" version="1.1" x="0" y="0" viewBox="5 5 90 90" enable-background="new 0 0 100 100" xml:space="preserve" height="130.25959922554483" width="130.25959922554483" class="icon-icon-0" data-fill-palette-color="accent" id="icon-0"><path d="M84.3 5.7C83.8 5.3 83.2 5 82.5 5H17.5C16.8 5 16.2 5.3 15.7 5.7L5.7 15.7C5.3 16.2 5 16.8 5 17.5V82.5C5 83.2 5.3 83.8 5.7 84.3L15.7 94.3C16.2 94.8 16.8 95 17.5 95H82.5C83.2 95 83.8 94.7 84.3 94.3L94.3 84.3C94.8 83.8 95 83.2 95 82.5V17.5C95 16.8 94.7 16.2 94.3 15.7zM86.3 76.1V23.9L90 21V79zM10 79V21L13.8 23.9V76zM16.3 25.9L21.3 29.8V70.2L16.3 74.1zM70.1 33.3L66.7 29.9 70.6 24.9 75.2 29.5zM35.6 71.3H64.4L68.3 76.3H31.7zM64.5 68.8H35.5L31.2 64.5V35.5L35.5 31.2H64.5L68.8 35.5V64.5zM64.4 28.8H35.6L31.7 23.8H68.3zM70.2 21.3H29.8L25.9 16.3H74.1zM33.3 29.9L29.9 33.3 24.9 29.4 29.5 24.8zM28.8 35.6V64.4L23.8 68.3V31.7zM29.9 66.7L33.3 70.1 29.4 75.1 24.8 70.5zM29.8 78.7H70.2L74.1 83.7H25.9zM66.7 70.1L70.1 66.7 75.1 70.6 70.5 75.2zM71.3 64.4V35.6L76.3 31.7V68.3zM77.1 27.9L72.1 22.9 76.6 17.2 82.9 23.5zM76.1 13.8H23.9L21 10H79zM27.9 22.9L22.9 27.9 16.5 22.9 22.9 16.5zM22.9 72.1L27.9 77.1 22.9 83.5 16.5 77.1zM23.9 86.3H76L79 90H21zM72.1 77.1L77.1 72.1 83.5 77.1 77.1 83.5zM78.7 70.2V29.8L83.7 25.9V74.1zM89.6 18.2L84.8 21.9 78.1 15.2 81.8 10.4zM18.2 10.4L21.3 14.4 14.4 21.3 10.4 18.2zM10.4 81.8L14.4 78.7 21.3 85.6 18.2 89.6zM81.8 89.6L78.7 85.6 85.6 78.7 89.6 81.8z" fill="#ffffff" data-fill-palette-color="accent"></path></svg></g></svg></g><g></g></svg></g><defs></defs></svg><rect width="395.52" height="236.51524922899486" fill="none" stroke="none" visibility="hidden"></rect></g></svg></g></svg>